<svg xmlns="http://www.w3.org/2000/svg" viewBox="0 0 512 512" width="512" height="512">
  <defs>
    <linearGradient id="orangeFlame" x1="50%" y1="100%" x2="50%" y2="0%">
      <stop offset="0%" stop-color="#F47B20"/>
      <stop offset="100%" stop-color="#FF8C3A"/>
    </linearGradient>
    <linearGradient id="skyBlue" x1="50%" y1="0%" x2="50%" y2="100%">
      <stop offset="0%" stop-color="#5EC8F2"/>
      <stop offset="100%" stop-color="#3BAEDE"/>
    </linearGradient>
    <linearGradient id="medBlue" x1="50%" y1="0%" x2="50%" y2="100%">
      <stop offset="0%" stop-color="#2E8ED6"/>
      <stop offset="100%" stop-color="#1E6FBF"/>
    </linearGradient>
    <linearGradient id="deepBlue" x1="50%" y1="0%" x2="50%" y2="100%">
      <stop offset="0%" stop-color="#1B6CB5"/>
      <stop offset="100%" stop-color="#155DA0"/>
    </linearGradient>
  </defs>

  <!-- Opaque background required for maskable icons -->
  <rect width="512" height="512" fill="#F5F7FA"/>

  <g transform="translate(256, 260)">
    <path d="M-10,60 C-40,50 -85,20 -95,-15 C-100,-35 -85,-65 -55,-55 C-30,-48 -15,-20 -10,10Z" fill="url(#deepBlue)"/>
    <path d="M10,60 C40,50 85,20 95,-15 C100,-35 85,-65 55,-55 C30,-48 15,-20 10,10Z" fill="url(#deepBlue)"/>
    <path d="M-5,40 C-30,30 -70,0 -75,-30 C-78,-48 -60,-65 -38,-50 C-20,-38 -10,-10 -5,15Z" fill="url(#medBlue)"/>
    <path d="M5,40 C30,30 70,0 75,-30 C78,-48 60,-65 38,-50 C20,-38 10,-10 5,15Z" fill="url(#medBlue)"/>
    <path d="M0,20 C-22,10 -55,-15 -55,-50 C-55,-65 -42,-72 -28,-60 C-15,-48 -5,-20 0,-5Z" fill="url(#skyBlue)"/>
    <path d="M0,20 C22,10 55,-15 55,-50 C55,-65 42,-72 28,-60 C15,-48 5,-20 0,-5Z" fill="url(#skyBlue)"/>
    <path d="M0,-135 C8,-110 35,-85 38,-55 C40,-35 25,-15 0,0 C-25,-15 -40,-35 -38,-55 C-35,-85 -8,-110 0,-135Z" fill="url(#orangeFlame)"/>
    <path d="M0,-95 C6,-78 22,-62 24,-42 C25,-28 15,-12 0,2 C-15,-12 -25,-28 -24,-42 C-22,-62 -6,-78 0,-95Z" fill="#0B1A3B"/>
    <path d="M0,65 C-8,50 -22,30 -22,15 C-22,2 -12,-8 0,-12 C12,-8 22,2 22,15 C22,30 8,50 0,65Z" fill="#0B1A3B"/>
    <path d="M0,-70 C4,-58 14,-48 15,-35 C16,-26 8,-18 0,-12 C-8,-18 -16,-26 -15,-35 C-14,-48 -4,-58 0,-70Z" fill="url(#skyBlue)" opacity="0.6"/>
    <rect x="-48" y="-118" width="8" height="3" rx="1.5" fill="#F47B20" transform="rotate(-40 -44 -116)"/>
    <rect x="40" y="-118" width="8" height="3" rx="1.5" fill="#F47B20" transform="rotate(40 44 -116)"/>
    <circle cx="-42" cy="-108" r="2" fill="#F47B20"/>
    <circle cx="42" cy="-108" r="2" fill="#F47B20"/>
  </g>
</svg>
